# xmcd
#
# Track frame offsets:
#	182
#	12542
#	30860
#	47275
#	60972
#	74300
#	87175
#	102310
#	117192
#	133665
#	148930
#	162387
#	176955
#	191912
#
# Disc length: 2736 seconds
#
# Revision: 0
# Processed by: cddbd v1.5.1PL0 Copyright (c) Steve Scherf et al.
# Submitted via: audiograbber 1.83.01
#
DISCID=c00aae0e
DTITLE=Various Artist - 80's Country
DYEAR=1989
DGENRE=Country
TTITLE0=Judds - Rockin' With The Rhythm Of The Rain
TTITLE1=K T Oslin - Do Ya'
TTITLE2=T G Shepherd - Strong Heart
TTITLE3=Ricky Skaggs - Crying My Heart Out Over You
TTITLE4=Larry Gatlin - Houston Means Im One Day Closer To You
TTITLE5=O'Kanes - Can't Stop My Heart From Loving You
TTITLE6=Alabama - Love In The First Degree
TTITLE7=Rosanne Cash - Seven Year Ache
TTITLE8=Earl Thomas Conley - Once In A Blue Moon
TTITLE9=Ricky Van Shelton - Somebody Lied
TTITLE10=Exile - It'll Be Me
TTITLE11=John Conlee - Got My Heart Set On You
TTITLE12=Statler Brothers - My Only Love
TTITLE13=Mickey Gilley - True Love Ways
EXTD=Updated
EXTT0=Judds
EXTT1=K. T. Oslin
EXTT2=T. G. Shepherd
EXTT3=Ricky Scaggs
EXTT4=Larry Gatlin
EXTT5=O'Kanes
EXTT6=Alabama
EXTT7=Rosanne Cash
EXTT8=Earl Thomas Conley
EXTT9=Rick Van Shelton
EXTT10=Exile
EXTT11=John Conlee
EXTT12=Statler Brothers
EXTT13=Mickey Gilley
PLAYORDER=
